<svg class="icon" viewBox="0 0 1024 1024" xmlns="http://www.w3.org/2000/svg">
  <path
    d="M996.117333 396.181333c-21.546667-9.237333-113.92 1.024-139.584-22.229333-18.133333-16.768-19.285333-47.125333-26.346666-87.594667-11.84-67.776-16.768-83.136-29.077334-109.824C756.266667 81.429333 648.896 0 551.338667 0h-226.133334C147.285333 0 1.877333 145.749333 1.877333 323.648v377.386667C1.877333 878.592 147.285333 1024 325.205333 1024H696.746667c177.92 0 322.282667-145.408 323.328-322.986667l2.048-261.376s0-32.298667-26.005334-43.456zM320 256h170.666667a64 64 0 0 1 0 128h-170.666667a64 64 0 0 1 0-128z m384 512H320a64 64 0 1 1 0-128h384a64 64 0 1 1 0 128z"
    fill="#FF6600"/>
</svg>
