<svg class="icon" viewBox="0 0 1024 1024" xmlns="http://www.w3.org/2000/svg">
  <path d="M512 512m-469.333333 0a469.333333 469.333333 0 1 0 938.666666 0 469.333333 469.333333 0 1 0-938.666666 0Z"
        fill="#EC4989"/>
  <path
    d="M512 1024C229.674667 1024 0 794.325333 0 512S229.674667 0 512 0s512 229.674667 512 512-229.674667 512-512 512z m431.786667-441.92c-14.933333-4.714667-135.36-40.618667-272.405334-18.688 57.216 157.184 80.490667 285.205333 84.970667 311.808 98.112-66.346667 167.957333-171.434667 187.434667-293.12zM682.837333 915.242667c-6.506667-38.378667-31.914667-172.096-93.312-331.648l-2.88 0.981333C339.989333 670.506667 251.434667 841.578667 243.562667 857.664A435.136 435.136 0 0 0 512 949.994667c60.586667 0 118.314667-12.373333 170.837333-34.773334zM187.093333 805.077333c9.92-16.96 129.92-215.68 355.477334-288.597333 5.696-1.834667 11.456-3.562667 17.237333-5.205333a1465.237333 1465.237333 0 0 0-35.456-74.218667c-218.389333 65.365333-430.314667 62.634667-449.450667 62.250667a435.584 435.584 0 0 0 112.213334 305.770666zM83.904 423.104c19.562667 0.256 199.744 1.024 404.309333-53.290667-72.469333-128.810667-150.613333-237.12-162.133333-252.928C203.733333 174.592 112.277333 287.381333 83.904 423.104zM409.514667 87.466667c12.096 16.213333 91.52 124.373333 163.2 256.021333 155.498667-58.282667 221.312-146.773333 229.184-157.973333A435.52 435.52 0 0 0 512 75.349333c-35.285333 0-69.589333 4.224-102.485333 12.16z m441.002666 148.629333c-9.216 12.458667-82.496 106.410667-244.202666 172.437333a1347.477333 1347.477333 0 0 1 38.442666 85.909334c145.493333-18.304 290.090667 11.029333 304.512 14.08a435.242667 435.242667 0 0 0-98.752-272.426667z"
    fill="#C51E60"/>
</svg>
