<svg class="icon" viewBox="0 0 1586 1024" xmlns="http://www.w3.org/2000/svg">
  <path
    d="M160.587294 1019.542588h1261.327059a145.568627 145.568627 0 0 0 145.548549-145.52847V146.291451A145.528471 145.528471 0 0 0 1421.914353 0.803137H160.587294A145.568627 145.568627 0 0 0 15.058824 146.311529V874.014118a145.588706 145.588706 0 0 0 145.52847 145.548549z"
    fill="#F4B459"/>
  <path
    d="M63.849412 981.955765l607.091451-467.184941L65.174588 37.205333C34.695529 63.909647 15.058824 102.600784 15.058824 146.311529V874.014118c0 43.028078 19.07451 81.317647 48.790588 107.961725zM1518.371137 38.048627l-629.539137 478.067451 628.956863 466.56251c30.278275-26.644078 49.694118-65.254902 49.694117-108.684549V146.331608c0-43.208784-19.215059-81.598745-49.091764-108.282981z"
    fill="#E8AB54"/>
  <path
    d="M1548.247843 944.971294L1018.096941 520.774275l536.495686-433.894902a145.66902 145.66902 0 0 0-55.737725-63.688785L813.578039 571.371922 109.748706 10.380549A145.608784 145.608784 0 0 0 40.357647 64.471843l566.673569 454.515451L47.666196 964.668235A144.946196 144.946196 0 0 0 122.88 1013.960784l554.164706-438.312157 33.812078 27.26651a142.436392 142.436392 0 0 0 205.603138 0l31.48298-25.459451 538.423216 426.36549a145.086745 145.086745 0 0 0 61.861647-58.829803z"
    fill="#FADAAC"/>
</svg>
