<svg class="icon" viewBox="0 0 1024 1024" xmlns="http://www.w3.org/2000/svg">
  <path
    d="M729.2092 494.944408c-16.291756-0.554431-31.986432 0.426486-46.614894 2.729509 4.094263-32.455567 17.827105-72.374634 66.403834-70.71134C802.863292 428.796465 810.369442 478.524706 810.540036 512.217081c-22.689043-9.937118-50.751806-16.206459-81.330836-17.272673m186.033091-316.452438c-7.634095-40.814688-31.815838-60.987464-53.694557-68.834803-23.584663-8.572364-71.436366-17.485916-131.528211-24.56558-48.363486-5.714909-105.214038-5.245775-139.546142-4.222209-4.136912-28.318655-23.883203-54.163692-46.060463-63.119893-59.02563-23.883203-150.250935-18.125645-173.622355-11.515116-18.594779 5.160478-39.23669 15.907919-50.709158 32.37027-7.676744 11.003333-12.623979 25.16266-12.666627 44.823653 0 11.173927 0.341189 37.44545 0.59708 60.774222 0.255891 23.456717 0.59708 44.35452 0.59708 44.525114a37.829287 37.829287 0 0 1-37.74399 37.871936H175.204191c-20.428668 0-36.038047 3.411886-47.937 8.828255-11.941601 5.501666-20.38602 12.794573-26.825955 21.494883-12.794573 17.230025-14.96965 38.469016-14.927002 60.134493 0 0 0.213243 17.784456 4.478101 52.031263 3.539832 26.570063 32.199675 212.048723 59.452116 268.47279 10.534198 21.921368 17.571214 31.090812 38.298421 40.72939 46.231057 19.916885 151.828933 42.008848 201.301282 48.320838 49.472349 6.354638 80.435215 19.703642 98.944697-19.19186 0.042649-0.127946 3.667778-9.723875 8.657661-23.755257 16.078513-48.789972 18.338888-92.120925 18.338888-123.424981 0-3.198643 4.606046-3.326589 4.606047 0 0 22.091963-4.179561 100.394749 54.718123 121.420498 23.243474 8.273824 71.479014 15.652028 120.482229 21.409585 44.35452 5.117829 76.511546 22.603746 76.511546 136.773985 0 69.474531-14.500516 78.985164-90.500279 78.985164-61.584545 0-85.041262 1.620646-85.041262-47.510514 0-39.663176 39.108745-35.526264 68.067129-35.526264 12.965167 0 3.58248-9.638578 3.58248-34.16151 0-24.352337 15.140245-38.426367 0.852972-38.810205-100.266803-2.772157-159.249785-0.127946-159.249785 125.728004 0 114.255537 43.544197 135.451879 185.777199 135.451879 111.568676 0 150.848015-3.667778 196.908478-147.137589 9.084147-28.318655 31.133461-114.724671 44.482465-259.815129 8.444418-91.737088-7.932635-368.654296-20.940451-438.555312m-724.215478 20.386019h87.003096a9.084147 9.084147 0 0 0 8.99885-9.084147s-1.023566-75.232089-1.023566-96.129891V93.408059c0-17.187376 3.539832-32.157027 9.809172-44.695708L298.757117 43.082739c-0.341189 0-0.682377 0.213243-1.023566 0.511783L128.80254 212.696128A1.961835 1.961835 0 0 0 128.162811 213.677045c3.497183-1.748592 8.273824-4.136912 8.956201-4.392803 14.713759-6.738475 32.540864-10.406253 53.907801-10.406253"
    fill="#2DBE60"/>
</svg>
