<svg class="icon" viewBox="0 0 1024 1024" xmlns="http://www.w3.org/2000/svg">
  <path d="M960 1024H64a64 64 0 0 1-64-64V64a64 64 0 0 1 64-64h896a64 64 0 0 1 64 64v896a64 64 0 0 1-64 64z"
        fill="#D20300"/>
  <path
    d="M471.722667 660.181333l-25.024-68.032s-40.661333 45.354667-101.653334 45.354667c-53.973333 0-92.266667-46.933333-92.266666-121.984 0-96.192 48.469333-130.581333 96.192-130.581333 68.8 0 90.688 44.565333 109.461333 101.653333l25.024 78.186667c25.024 75.861333 71.936 136.853333 207.232 136.853333 96.96 0 162.645333-29.717333 162.645333-107.904 0-63.36-35.968-96.213333-103.232-111.829333l-50.048-10.944c-34.389333-7.829333-44.565333-21.909333-44.565333-45.354667 0-26.602667 21.12-42.24 55.530667-42.24 37.546667 0 57.856 14.08 60.992 47.701333l78.186666-9.386666c-6.250667-70.378667-54.72-99.306667-134.485333-99.306667-70.4 0-139.2 26.602667-139.2 111.829333 0 53.162667 25.813333 86.805333 90.709333 102.442667l53.184 12.501333c39.893333 9.386667 53.162667 25.813333 53.162667 48.490667 0 28.928-28.16 40.661333-81.322667 40.661333-78.976 0-111.829333-41.450667-130.581333-98.538666l-25.813333-78.186667c-32.853333-101.653333-85.226667-139.2-189.226667-139.2-114.965333 0-175.957333 72.746667-175.957333 196.266667 0 118.869333 61.013333 182.997333 170.474666 182.997333 88.362667 0 130.581333-41.450667 130.581334-41.450667z"
    fill="#FFFFFF"/>
</svg>
