<svg class="icon" viewBox="0 0 1024 1024" xmlns="http://www.w3.org/2000/svg">
  <path
    d="M252.95473 672.839316c0.213329 0.618654 5.525218 15.295681 8.597154 22.548863a333.966376 333.966376 0 0 0 71.827837 106.536448 334.009041 334.009041 0 0 0 237.008396 98.131289 334.030374 334.030374 0 0 0 237.008396-98.173955 334.030374 334.030374 0 0 0 98.152621-237.008396 334.030374 334.030374 0 0 0-98.173954-237.008396 334.051707 334.051707 0 0 0-237.008396-98.152621c-45.759047 0-91.518093 9.109144-132.263911 26.346117-32.575321 13.781046-87.720839 49.278973-120.018833 82.55828l-0.191996 0.213329V62.953355h463.37168c16.852982-0.213329 16.852982-23.743505 16.852982-31.487344 0-7.722506 0-31.274015-16.895648-31.466011H280.196829c-13.653049 0-22.07954 11.349097-22.07954 21.866211v388.258578c0 12.522406 15.594342 21.567551 30.079374 24.682153 28.330076 6.037208 34.879273-3.007937 41.812462-12.586405l0.917314-1.279973c10.581113-15.722339 43.668424-49.001646 43.988417-49.342972 51.625591-51.625591 120.65882-80.062332 194.363951-80.062332a272.207662 272.207662 0 0 1 193.830628 80.062332 271.695673 271.695673 0 0 1 80.318327 193.275973c0 73.086477-28.372742 141.735714-79.913002 193.275974-50.87894 50.857607-121.960126 80.040999-195.003937 80.040999-49.492302 0-97.235308-13.183725-138.151789-38.121873l0.191996-236.091081c0-31.466011 13.653049-65.705298 36.521906-91.518094a133.949209 133.949209 0 0 1 101.544551-45.823045c38.057874 0 73.598467 14.442366 100.093915 40.681819a136.637153 136.637153 0 0 1 40.788483 97.747297c0 78.889023-62.036041 140.690402-141.223724 140.690402-15.274348 0-43.028437-6.741193-44.15908-7.039853-15.999667-4.757234-22.826191 17.450303-25.044812 24.767484-8.618487 28.159413 4.330576 33.705964 6.997188 34.55928 25.492802 7.893169 42.196454 9.386471 64.126664 9.386471 111.784338 0 202.747776-90.984771 202.747776-202.833107 0-110.952355-90.89944-201.233141-202.619779-201.233141-54.71886 0-106.131122 20.906231-144.743651 58.900106-36.7779 36.18058-57.876128 84.392908-57.876128 132.306577v1.194642c-0.191996 5.973209-0.29866 147.495594-0.341326 193.937293l-0.213329-0.213329c-21.012896-23.295515-41.769796-58.900106-55.550842-95.294015-5.397221-14.271703-17.599633-11.733089-34.239287-6.613196-7.253182 2.239953-29.375388 9.045145-24.490156 25.044812l0.085331 0.191996z m238.160372-55.465511c0.063999 6.783859 6.271869 12.735735 9.983792 16.276994l1.173309 1.130643c6.357201 6.250536 12.415741 9.429137 18.004958 9.429137 4.607904 0 7.466511-2.175955 8.469157-3.135935 2.815941-2.602612 34.516614-34.70861 37.545884-37.759213L601.598133 638.514698c3.285265 3.69059 6.826524 5.546551 10.986438 5.653215 5.631883 0 11.797088-3.370596 18.282286-9.983792 15.253016-15.573009 7.615841-23.978167 3.925251-28.031416l-35.81792-35.839253 37.353888-37.609883c8.191829-8.853149 0.95998-18.282286-6.250536-25.492803-10.474448-10.453116-20.586238-13.183725-27.071436-7.210516l-37.119227 37.204558-37.567217-37.545884a10.303785 10.303785 0 0 0-7.253182-2.943939c-5.013229 0-10.943772 3.413262-17.620966 10.069124-11.541093 11.541093-14.015708 19.540926-7.999834 25.898127l37.545885 37.460553-37.332556 37.417887c-3.071936 3.050603-4.607904 6.357201-4.565238 9.791796z m81.832962-507.637425c-60.030749 0-123.901419 12.117081-170.812442 32.425992a13.397054 13.397054 0 0 0-8.682486 11.647757c-0.618654 5.333222 0.831983 12.373076 4.415908 21.546218 2.901273 7.423845 10.645112 27.1781 25.599467 21.482219 48.020333-18.324952 101.117893-28.415408 149.479553-28.415408 54.825524 0 107.987084 10.730443 158.012708 31.892669 39.743172 16.810316 77.267724 41.108477 118.034874 76.457074 2.986604 2.559947 6.143872 3.882586 9.386471 3.882585 7.957168 0 15.573009-7.807837 22.100873-15.146351 10.879773-12.202412 18.367617-22.356868 7.637174-32.511322-38.932522-36.905898-81.619633-64.46799-134.290535-86.739527a461.707714 461.707714 0 0 0-180.881565-36.521906z m323.534593 741.403221c-7.231849-7.210516-13.375721-11.477094-18.772943-13.013062-5.46122-1.578634-10.346451-0.405325-14.122372 3.391929l-3.562593 3.54126a403.788921 403.788921 0 0 1-286.500697 118.674861 403.767588 403.767588 0 0 1-286.500698-118.674861c-38.740526-38.761859-67.966584-82.088956-86.824858-128.78665-18.346284-45.524385-24.362159-79.763672-26.324785-91.006104-0.213329-1.066644-0.341326-1.877294-0.447991-2.495948-2.538614-13.226391-14.719693-14.165038-32.255328-11.477095-7.295848 1.10931-29.46072 4.479907-27.348763 20.458241l0.042665 0.362659a463.777005 463.777005 0 0 0 130.557281 255.568009 463.777005 463.777005 0 0 0 147.943584 99.731256A462.390367 462.390367 0 0 0 573.524052 1024c62.804025 0 123.773421-12.309077 181.180225-36.607237a463.777005 463.777005 0 0 0 147.943585-99.752589c0.085332-0.085332 2.431949-2.410616 3.711922-3.797254 4.693236-5.119893 8.78915-14.079707-9.877127-32.703319z"
    fill=""/>
</svg>
