<svg class="icon" viewBox="0 0 1024 1024" xmlns="http://www.w3.org/2000/svg">
  <path d="M1024 512c0 282.773333-229.226667 512-512 512S0 794.773333 0 512 229.226667 0 512 0s512 229.226667 512 512"
        fill="#FFFFFF"/>
  <path
    d="M511.381333 48.064C255.168 48.064 47.466667 255.786667 47.466667 512c0 196.544 122.282667 364.416 294.848 432-4.053333-36.693333-7.701333-93.013333 1.621333-133.056 8.426667-36.224 54.4-230.613333 54.4-230.613333s-13.866667-27.797333-13.866667-68.885334c0-64.512 37.376-112.661333 83.925334-112.661333 39.594667 0 58.709333 29.717333 58.709333 65.344 0 39.808-25.344 99.306667-38.421333 154.453333-10.944 46.186667 23.146667 83.84 68.693333 83.84 82.453333 0 145.834667-86.933333 145.834667-212.437333 0-111.082667-79.808-188.736-193.770667-188.736-132.010667 0-209.493333 98.986667-209.493333 201.322667 0 39.893333 15.36 82.645333 34.517333 105.877333 3.797333 4.586667 4.352 8.618667 3.221333 13.312-3.52 14.656-11.349333 46.165333-12.885333 52.608-2.026667 8.490667-6.72 10.282667-15.509333 6.186667-57.941333-26.965333-94.165333-111.658667-94.165334-179.712 0-146.346667 106.325333-280.746667 306.538667-280.746667 160.938667 0 285.994667 114.688 285.994667 267.946667 0 159.893333-100.8 288.576-240.725334 288.576-47.018667 0-91.221333-24.426667-106.346666-53.290667 0 0-23.253333 88.597333-28.906667 110.293333-10.453333 40.298667-38.741333 90.816-57.642667 121.621334 43.392 13.44 89.536 20.693333 137.344 20.693333 256.234667 0 463.936-207.701333 463.936-463.936 0-256.213333-207.701333-463.936-463.936-463.936z"
    fill="#BD081C"/>
</svg>
