<svg class="icon" viewBox="0 0 1024 1024" xmlns="http://www.w3.org/2000/svg">
  <path
    d="M512.569173 85.333333l417.536 0.042667c43.093333 0 80.213333 27.221333 90.922667 66.730667 1.706667 6.229333 2.773333 12.8 2.773333 19.242666 0.085333 106.24 0.597333 212.522667-0.384 318.805334-0.981333 108.544-34.56 206.805333-102.997333 292.650666-76.074667 95.488-174.250667 158.421333-295.210667 185.728-277.76 62.72-543.104-112.469333-608.597333-357.632-8.704-32.682667-14.677333-65.834667-14.933333-99.584C0.654507 398.293333-0.070827 285.269333 0.014507 172.245333 0.014507 124.672 43.534507 85.418667 94.17984 85.333333c139.477333-0.085333 278.912 0 418.389333 0z m-0.384 445.781334l-6.4-5.973334C444.601173 466.602667 383.502507 407.893333 322.14784 349.397333a68.864 68.864 0 0 0-97.92 1.92c-26.325333 27.306667-25.984 70.485333 1.706667 97.194667 79.445333 76.458667 159.146667 152.746667 238.933333 228.864a68.522667 68.522667 0 0 0 94.464 0.042667c10.794667-10.026667 21.333333-20.352 32-30.549334 68.224-65.322667 136.405333-130.730667 204.714667-196.010666 16.384-15.701333 25.002667-34.645333 22.826666-57.216-2.730667-28.672-17.92-49.365333-45.141333-59.221334-27.178667-9.856-51.882667-3.925333-72.832 16.042667-34.304 32.64-68.48 65.493333-102.698667 98.261333l-86.016 82.432z"
    fill="#F43B53"/>
</svg>
