<svg class="icon" viewBox="0 0 1024 1024" xmlns="http://www.w3.org/2000/svg">
  <path
    d="M335.829333 222.613333l-0.042666 209.642667s5.653333 87.616 56.661333 163.285333c48.32 71.68 94.656 98.858667 118.848 108.864a290.794667 290.794667 0 0 0 72.896-192.938666c0-146.496-107.776-267.754667-248.362667-288.853334zM342.570667 695.338667c-43.733333-53.824-54.954667-105.962667-54.954667-105.962667s-10.090667 54.378667-44.864 100.352c-21.845333 28.885333-66.304 63.530667-87.872 79.594667a290.688 290.688 0 0 0 137.216 34.218666c48.938667 0 95.04-12.096 135.552-33.365333-25.194667-19.690667-68.864-54.869333-85.077333-74.837333zM240.021333 436.864l-0.085333-212.8c-136.426667 24.618667-239.936 143.872-239.936 287.381333 0 73.194667 26.986667 140.074667 71.488 191.317334 23.722667-14.592 74.176-49.130667 106.794667-96.832 50.474667-73.749333 61.738667-169.066667 61.738666-169.066667z"
    fill="#0460A6"/>
  <path
    d="M775.637333 224.213333l-0.042666 209.642667s5.632 87.616 56.661333 163.285333c48.298667 71.68 94.634667 98.858667 118.848 108.842667a290.901333 290.901333 0 0 0 72.896-192.938667c0-146.453333-107.797333-267.712-248.362667-288.832zM782.357333 696.96c-43.733333-53.824-54.933333-105.984-54.933333-105.984s-10.090667 54.378667-44.864 100.352c-21.824 28.885333-66.282667 63.552-87.872 79.594667a290.752 290.752 0 0 0 137.216 34.218666c48.938667 0 95.04-12.096 135.573333-33.365333-25.216-19.669333-68.885333-54.869333-85.12-74.816zM679.829333 438.485333l-0.085333-212.8c-136.426667 24.597333-239.936 143.850667-239.936 287.36 0 73.216 26.986667 140.074667 71.488 191.338667 23.722667-14.592 74.154667-49.152 106.794667-96.832 50.453333-73.749333 61.738667-169.066667 61.738666-169.066667z"
    fill="#0460A6"/>
  <path
    d="M440.96 512.085333c0 73.450667 25.792 140.8 70.336 192.32 44.544-51.52 72.789333-118.848 72.789333-192.32 0-73.450667-27.008-140.565333-71.573333-192.064a292.608 292.608 0 0 0-71.552 192.064z"
    fill="#CD392B"/>
</svg>
