<svg class="icon" viewBox="0 0 1025 1024" xmlns="http://www.w3.org/2000/svg">
  <path
    d="M663.391763 64.034099a91.128989 91.128989 0 1 0-173.328361 56.30561l235.62257 724.961373a91.107678 91.107678 0 0 0 110.863658 56.476104c48.356332-13.895253 77.830465-65.277852 62.400767-112.781715L663.391763 64.034099z"
    fill="#E8A723"/>
  <path
    d="M298.300389 182.655229a91.128989 91.128989 0 1 0-173.328361 56.326922L360.594597 963.9009a91.107678 91.107678 0 0 0 110.842347 56.497416c48.377644-13.916565 77.851777-65.277852 62.422079-112.781714L298.300389 182.655229z"
    fill="#3EB890"/>
  <path
    d="M959.965901 664.428366a91.128989 91.128989 0 1 0-56.30561-173.328361L178.698918 726.743886a91.107678 91.107678 0 0 0-56.476104 110.821035c13.895253 48.377644 65.277852 77.851777 112.781715 62.443391l724.961372-235.579946z"
    fill="#E01765"/>
  <path d="M329.799137 869.191539l173.264425-56.30561-56.30561-173.264425-173.264425 56.30561 56.30561 173.264425z"
        fill="#472A49"/>
  <path
    d="M694.911823 750.570409c65.490969-21.311737 126.378603-41.067718 173.264425-56.305611l-56.326922-173.32836-173.264425 56.326922 56.326922 173.285737z"
    fill="#CC2027"/>
  <path
    d="M841.344771 299.336992a91.128989 91.128989 0 1 0-56.326922-173.328361L60.0991 361.6312a91.107678 91.107678 0 0 0-56.497416 110.842347c13.916565 48.377644 65.277852 77.851777 112.781714 62.422079l724.982684-235.558634z"
    fill="#70CADB"/>
  <path d="M211.135383 504.100165l173.307049-56.30561-56.305611-173.285737-173.307049 56.326922 56.305611 173.264425z"
        fill="#1A937D"/>
  <path d="M576.226757 385.479035l173.307049-56.326922-56.305611-173.307049-173.307048 56.326922 56.30561 173.307049z"
        fill="#65863A"/>
</svg>
