<svg class="icon" viewBox="0 0 1024 1024" xmlns="http://www.w3.org/2000/svg">
  <path
    d="M19.242667 524.992c-0.362667-2.56-2.176-4.266667-4.416-4.266667s-4.096 1.792-4.394667 4.266667L0 620.224l10.432 93.12c0.277333 2.496 2.133333 4.288 4.394667 4.288 2.24 0 4.053333-1.749333 4.416-4.266667l11.861333-93.141333-11.861333-95.232zM183.509333 437.141333c-4.266667 0-7.808 3.498667-8.021333 7.957334l-8.298667 175.189333 8.32 113.237333c0.213333 4.416 3.712 7.893333 8 7.893334 4.266667 0 7.765333-3.477333 8.021334-7.914667v0.021333l9.386666-113.237333-9.386666-175.189333a8.234667 8.234667 0 0 0-8.021334-7.957334zM98.496 498.026667c-3.285333 0-5.973333 2.624-6.229333 6.144l-9.344 116.074666 9.344 112.32a6.357333 6.357333 0 0 0 6.229333 6.101334c3.242667 0 5.930667-2.624 6.208-6.101334l10.624-112.32-10.624-116.117333c-0.277333-3.477333-2.965333-6.101333-6.208-6.101333zM269.909333 741.418667c5.290667 0 9.6-4.266667 9.813334-9.749334l8.149333-111.317333-8.128-233.258667a9.962667 9.962667 0 0 0-9.813333-9.749333 9.92 9.92 0 0 0-9.856 9.749333l-7.232 233.237334 7.232 111.36c0.170667 5.44 4.48 9.728 9.813333 9.728zM446.762667 741.952a13.610667 13.610667 0 0 0 13.461333-13.397333v0.064-0.064l5.674667-108.138667-5.674667-269.397333a13.610667 13.610667 0 0 0-13.44-13.397334 13.589333 13.589333 0 0 0-13.461333 13.418667l-5.077334 269.290667 5.077334 108.288a13.589333 13.589333 0 0 0 13.44 13.333333zM357.653333 741.546667a11.733333 11.733333 0 0 0 11.648-11.626667v0.085333l6.912-109.632-6.912-234.944a11.712 11.712 0 0 0-11.648-11.584c-6.4 0-11.52 5.077333-11.648 11.584L339.84 620.373333l6.144 109.610667c0.149333 6.421333 5.269333 11.52 11.648 11.52zM893.589333 481.365333c-17.877333 0-34.922667 3.626667-50.453333 10.133334-10.368-117.546667-108.949333-209.749333-229.184-209.749334-29.44 0-58.112 5.781333-83.413333 15.573334-9.856 3.818667-12.48 7.744-12.586667 15.36V726.613333a15.786667 15.786667 0 0 0 14.08 15.424c0.341333 0.042667 359.210667 0.213333 361.536 0.213334a130.432 130.432 0 0 0 0-260.885334z"
    fill="#F26E20"/>
</svg>
