<svg class="icon" viewBox="0 0 1024 1024" xmlns="http://www.w3.org/2000/svg">
  <path
    d="M128 0C57.301333 0 0 57.344 0 128v768c0 70.698667 57.344 128 128 128h768c70.698667 0 128-57.344 128-128V128c0-70.698667-57.344-128-128-128H128z"
    fill="#0079BF"/>
  <path
    d="M597.333333 170.666667v384a42.666667 42.666667 0 0 0 42.666667 42.666666h213.333333a42.666667 42.666667 0 0 0 42.666667-42.666666V170.666667a42.666667 42.666667 0 0 0-42.666667-42.666667H640a42.666667 42.666667 0 0 0-42.666667 42.666667zM128 170.666667v640a42.666667 42.666667 0 0 0 42.666667 42.666666h213.333333a42.666667 42.666667 0 0 0 42.666667-42.666666V170.666667a42.666667 42.666667 0 0 0-42.666667-42.666667H170.666667a42.666667 42.666667 0 0 0-42.666667 42.666667z"
    fill="#FFFFFF"/>
</svg>
