<svg class="icon" viewBox="0 0 1024 1024" xmlns="http://www.w3.org/2000/svg">
  <path
    d="M72.789333 512c0 173.824 101.013333 324.096 247.530667 395.264L110.826667 333.226667A437.525333 437.525333 0 0 0 72.768 512zM808.490667 489.813333c0-54.272-19.498667-91.861333-36.202667-121.109333-22.272-36.202667-43.157333-66.816-43.157333-103.018667 0-40.362667 30.613333-77.952 73.770666-77.952 1.941333 0 3.797333 0.234667 5.696 0.362667A437.546667 437.546667 0 0 0 512 72.746667c-153.450667 0-288.426667 78.741333-366.976 197.973333 10.304 0.32 20.032 0.533333 28.266667 0.533333 45.930667 0 117.056-5.589333 117.056-5.589333 23.68-1.386667 26.453333 33.408 2.816 36.202667 0 0-23.808 2.773333-50.261334 4.16l159.914667 475.776 96.149333-288.277334-68.437333-187.498666c-23.68-1.386667-46.08-4.16-46.08-4.16-23.658667-1.408-20.885333-37.589333 2.794667-36.202667 0 0 72.533333 5.589333 115.690666 5.589333 45.909333 0 117.056-5.589333 117.056-5.589333 23.68-1.386667 26.453333 33.408 2.794667 36.202667 0 0-23.829333 2.773333-50.261333 4.16l158.72 472.149333 43.84-146.368c18.965333-60.8 33.408-104.405333 33.408-141.994667z"
    fill="#464342"/>
  <path
    d="M519.701333 550.4l-131.797333 382.933333a439.04 439.04 0 0 0 269.952-6.997333 41.066667 41.066667 0 0 1-3.157333-6.058667L519.701333 550.4zM897.408 301.269333c1.877333 13.994667 2.944 29.013333 2.944 45.162667 0 44.565333-8.32 94.656-33.386667 157.312L732.8 891.626667c130.56-76.138667 218.389333-217.6 218.389333-379.648 0-76.373333-19.52-148.138667-53.802666-210.709334z"
    fill="#464342"/>
  <path
    d="M512 0C229.674667 0 0 229.674667 0 512s229.674667 512 512 512c282.304 0 512-229.674667 512-512S794.304 0 512 0z m0 1000.533333C242.624 1000.533333 23.466667 781.333333 23.466667 512 23.466667 242.602667 242.645333 23.466667 512 23.466667c269.354667 0 488.533333 219.157333 488.533333 488.533333 0 269.354667-219.178667 488.533333-488.533333 488.533333z"
    fill="#464342"/>
</svg>
