<svg class="icon" viewBox="0 0 1024 1024" xmlns="http://www.w3.org/2000/svg">
  <path
    d="M150.088458 492.87199c-16.252746 26.661329-23.099375 110.569863-17.489832 166.302704 1.983603 18.385652 5.24695 33.69992 9.960672 42.850088 6.484035 12.648134 17.425845 20.177294 29.903347 20.603875 7.97707 0.44791 12.946741-0.959808 163.167332-50.400576 0 0 66.802626-21.755644 67.079904-21.904948 16.636669-4.287142 27.834427-19.964003 28.964867-39.991993 1.066453-20.475901-9.320801-38.626933-26.362722-45.153627 0 0-47.051913-19.622738-47.179887-19.622738-161.439678-68.125027-168.670231-70.812489-176.817933-70.919134-12.434844-0.490568-23.568615 5.92948-31.225748 18.236349zM511.253483 1000.418375c2.623475-7.721121 2.922082-13.053387 3.348663-174.514395 0 0 0.383923-71.345716 0.426581-72.092233 1.066453-17.425845-9.939343-33.315997-28.133034-40.52522-18.641601-7.337198-38.712249-2.772778-49.952666 11.603011 0 0-32.910744 39.991993-33.038719 39.991993-113.172009 135.866132-117.821744 142.158205-120.594522 150.199262a32.718783 32.718783 0 0 0-1.770313 14.845028c0.68253 7.166565 3.839231 14.290472 9.128839 20.902482 26.213419 31.929607 151.990903 79.258798 192.15353 72.262866 13.991865-2.623475 24.101841-10.643202 28.431641-22.672794zM766.349077 944.237622c37.923074-15.463571 120.722497-123.132681 126.524002-164.553721 1.983603-14.418447-2.431513-26.831961-12.136237-34.745044-6.356061-4.884355-11.261745-6.8253-161.375691-57.204547 0 0-65.842818-22.267542-66.69598-22.694123-15.911481-6.313403-34.14783-0.490568-46.390712 15.01566-12.648134 15.847494-14.610408 36.664659-4.479103 52.512153l26.533354 44.108503c89.155484 148.087685 95.916797 158.560255 102.379503 163.67923 9.896685 7.998399 22.502162 9.320801 35.640864 3.881889zM688.817933 563.044607c170.653834-42.252874 177.244514-44.535084 183.963169-49.056845 10.344596-7.081249 15.506229-18.982866 14.631737-33.529287 0-0.490568 0.063987-0.91715 0-1.450376-4.372458-42.828759-77.85108-154.3371-114.003842-172.402817-12.797438-6.313403-25.637534-5.886821-36.19542 1.386389-6.61201 4.415116-11.475036 11.027126-102.806084 138.830871 0 0-41.314395 57.545812-41.804964 58.100368-10.92048 13.501297-11.027126 32.953402-0.426581 49.568743 11.005797 17.212554 29.647398 25.616205 46.710648 20.774507 0 0-0.725188 1.215757-0.917149 1.471706 8.403651-3.284676 23.461969-7.038591 50.869815-13.693259zM517.481569 418.902799c-2.922082-69.148822-23.248679-377.161822-25.637534-391.452295-3.497966-12.904083-13.330664-22.139567-27.578478-25.808166-43.511289-11.091113-209.963297 36.664659-240.84778 69.234139-9.896685 10.557886-13.586613 23.611273-10.621874 35.107637 4.841697 10.23795 211.157724 342.203488 211.157725 342.203488 30.50056 50.549879 55.391577 42.743442 63.517949 40.141297 8.105044-2.559488 32.825428-10.408583 30.009992-69.404771z"
    fill="#C60D00"/>
</svg>
