<svg class="icon" viewBox="0 0 1024 1024" xmlns="http://www.w3.org/2000/svg">
  <path
    d="M934.965272 88.869823v-2.539137h-147.269993c-2.539138 0-7.617413 0-10.156551-2.539138C670.89494 17.773965 556.633738-5.078276 432.215986 12.695689c-68.556721 10.156551-134.574304 35.547929-192.974474 71.095859H81.814968v5.078275h853.150304z"
    fill="#5BAD44"/>
  <path
    d="M79.27583 939.480989h2.539138L576.946841 208.2093 79.27583 88.869823v147.269993c0 2.539138 0 7.617413-2.539138 10.156551-7.617413 12.695689-15.234827 22.85224-20.313102 35.54793-48.243618 96.487237-63.478445 198.052749-48.243618 304.696537 10.156551 68.556721 33.008792 132.035166 68.55672 190.435336 2.539138 2.539138 2.539138 5.078276 2.539138 10.156551v152.348268z m926.785301-507.827561c-10.156551-66.017583-35.547929-132.035166-71.095859-187.896198-2.539138-2.539138-2.539138-5.078276-2.539138-7.617414V93.948099L437.294261 820.141512 922.269583 939.480989h10.156551v-5.078275-144.730855c0-2.539138 0-5.078276 2.539138-7.617414 40.626205-63.478445 63.478445-132.035166 73.634996-205.670162 7.617413-50.782756 5.078276-99.026375-2.539137-144.730855z"
    fill="#223D7F"/>
  <path
    d="M81.814968 939.480989v5.078276h147.269993c2.539138 0 7.617413 0 10.156551 2.539138 106.643788 66.017583 220.904989 88.869823 345.322742 71.095858 68.556721-10.156551 132.035166-35.547929 192.974474-71.095858 2.539138-2.539138 5.078276-2.539138 7.617413-2.539138h149.809131V939.480989H81.814968z"
    fill="#5BAD44"/>
</svg>
