<svg class="icon" viewBox="0 0 1440 1024" version="1.1" xmlns="http://www.w3.org/2000/svg" width="256" height="256"><path d="M1106.4 256c-1.6 0-3.2 0-4.6 0.2-1.6 0-3.2 0.2-4.6 0.4-1.6 0.2-3.2 0.4-4.6 0.8-1.6 0.2-3 0.6-4.6 1-1.6 0.4-3 0.8-4.6 1.4-1.4 0.4-3 1-4.4 1.6-1.4 0.6-3 1.2-4.4 1.8-1.4 0.6-2.8 1.4-4.2 2.2-1.4 0.8-2.8 1.6-4 2.4-1.4 0.8-2.6 1.8-4 2.6-1.2 1-2.6 1.8-3.8 2.8-1.2 1-2.4 2-3.6 3.2-1.2 1-2.4 2.2-3.4 3.4-1.2 1.2-2.2 2.4-3.2 3.6-1 1.2-2 2.4-3 3.8-1 1.2-1.8 2.6-2.8 4-0.8 1.4-1.8 2.8-2.6 4-0.8 1.4-1.6 2.8-2.2 4.2-0.8 1.4-1.4 3-2 4.4-0.6 1.4-1.2 3-1.8 4.6-0.6 1.6-1 3-1.4 4.6-0.4 1.6-0.8 3.2-1.2 4.6-0.4 1.6-0.6 3.2-1 4.8l-0.6 4.8c-0.2 1.6-0.4 3.2-0.4 4.8 0 1.6-0.2 3.2 0 4.8 0 1.6 0 3.2 0.2 4.8 0.2 1.6 0.2 3.2 0.4 4.8 0.2 1.6 0.4 3.2 0.8 4.8 0.2 1.6 0.6 3.2 1 4.8 0.4 1.6 0.8 3.2 1.4 4.6 0.4 1.6 1 3 1.6 4.6l-162.6 168.4c-4.4-1.8-9.2-3.2-13.8-4.2-4.8-1-9.6-1.4-14.4-1.4-4.8 0-9.6 0.4-14.4 1.4-4.8 1-9.4 2.4-13.8 4.2l-116.2-120.4c0.6-1.6 1.2-3 1.6-4.6 0.4-1.6 1-3 1.4-4.6 0.4-1.6 0.8-3.2 1-4.8 0.2-1.6 0.6-3.2 0.8-4.8 0.2-1.6 0.4-3.2 0.4-4.8s0.2-3.2 0.2-4.8V380c0-1.6-0.2-3.2-0.4-4.8l-0.6-4.8c-0.2-1.6-0.6-3.2-1-4.8-0.4-1.6-0.8-3.2-1.2-4.6-0.4-1.6-1-3-1.4-4.6-0.6-1.6-1.2-3-1.8-4.6-0.6-1.4-1.4-3-2-4.4-0.8-1.4-1.4-2.8-2.2-4.2-0.8-1.4-1.6-2.8-2.6-4-0.8-1.4-1.8-2.6-2.8-4-1-1.2-2-2.6-3-3.8-1-1.2-2.2-2.4-3.2-3.6l-3.4-3.4c-1.2-1-2.4-2.2-3.6-3.2-1.2-1-2.4-2-3.8-2.8-1.2-1-2.6-1.8-4-2.6s-2.6-1.6-4-2.4c-1.4-0.8-2.8-1.4-4.2-2.2s-2.8-1.2-4.4-1.8c-1.4-0.6-3-1.2-4.4-1.6-1.4-0.4-3-1-4.6-1.4-1.6-0.4-3-0.8-4.6-1-1.6-0.2-3-0.6-4.6-0.8-1.6-0.2-3.2-0.4-4.6-0.4-1.6 0-3.2-0.2-4.6-0.2-1.6 0-3.2 0-4.6 0.2-1.6 0-3.2 0.2-4.6 0.4-1.6 0.2-3.2 0.4-4.6 0.8-1.6 0.2-3 0.6-4.6 1-1.6 0.4-3 0.8-4.6 1.4-1.4 0.4-3 1-4.4 1.6-1.4 0.6-3 1.2-4.4 1.8-1.4 0.6-2.8 1.4-4.2 2.2-1.4 0.8-2.8 1.6-4 2.4-1.4 0.8-2.6 1.8-4 2.6-1.2 1-2.6 1.8-3.8 2.8-1.2 1-2.4 2-3.6 3.2-1.2 1-2.4 2.2-3.4 3.4-1.2 1.2-2.2 2.4-3.2 3.6-1 1.2-2 2.4-3 3.8-1 1.2-1.8 2.6-2.8 4-0.8 1.4-1.8 2.8-2.6 4-0.8 1.4-1.6 2.8-2.2 4.2-0.8 1.4-1.4 3-2 4.4-0.6 1.4-1.2 3-1.8 4.6-0.6 1.6-1 3-1.4 4.6-0.4 1.6-0.8 3.2-1.2 4.6-0.4 1.6-0.6 3.2-1 4.8l-0.6 4.8c-0.2 1.6-0.4 3.2-0.4 4.8 0 1.6-0.2 3.2 0 4.8 0 1.6 0 3.2 0.2 4.8 0.2 1.6 0.2 3.2 0.4 4.8 0.2 1.6 0.4 3.2 0.8 4.8 0.2 1.6 0.6 3.2 1 4.8 0.4 1.6 0.8 3.2 1.4 4.6 0.4 1.6 1 3 1.6 4.6L361.8 613.6c-1.4-0.6-2.8-1-4.2-1.6-1.4-0.4-2.8-1-4.2-1.2-1.4-0.4-2.8-0.8-4.2-1-1.4-0.4-2.8-0.6-4.4-0.8-1.4-0.2-3-0.4-4.4-0.6-1.4-0.2-3-0.2-4.4-0.2h-4.4c-1.4 0-3 0.2-4.4 0.2-1.4 0.2-3 0.2-4.4 0.4-1.4 0.2-2.8 0.4-4.4 0.8-1.4 0.2-2.8 0.6-4.2 1l-4.2 1.2c-1.4 0.4-2.8 1-4.2 1.6-1.4 0.6-2.8 1.2-4 1.8-1.4 0.6-2.6 1.2-4 2s-2.6 1.4-3.8 2.2c-1.2 0.8-2.4 1.6-3.8 2.4-1.2 0.8-2.4 1.8-3.6 2.6-1.2 1-2.4 1.8-3.4 2.8-1.2 1-2.2 2-3.2 3s-2 2.2-3 3.2c-1 1.2-2 2.2-3 3.4-1 1.2-1.8 2.4-2.8 3.6-0.8 1.2-1.8 2.4-2.6 3.8-0.8 1.2-1.6 2.6-2.4 3.8-0.8 1.4-1.4 2.6-2 4l-1.8 4.2c-0.6 1.4-1.2 2.8-1.6 4.2-0.6 1.4-1 2.8-1.4 4.4-0.4 1.4-0.8 3-1.2 4.4-0.4 1.4-0.6 3-1 4.4-0.2 1.4-0.4 3-0.6 4.4-0.2 1.6-0.4 3-0.4 4.6 0 1.6-0.2 3-0.2 4.6v4.6c0 1.6 0.2 3 0.4 4.6 0.2 1.6 0.4 3 0.6 4.6 0.2 1.4 0.6 3 0.8 4.4 0.4 1.4 0.6 3 1 4.4 0.4 1.4 0.8 3 1.4 4.4 0.4 1.4 1 2.8 1.6 4.2l1.8 4.2c0.6 1.4 1.2 2.8 2 4 0.8 1.4 1.4 2.6 2.2 4 0.8 1.2 1.6 2.6 2.4 3.8 0.8 1.2 1.8 2.4 2.6 3.6 1 1.2 1.8 2.4 2.8 3.4 1 1.2 2 2.2 3 3.4l3.2 3.2c1 1 2.2 2 3.4 3 1.2 1 2.4 1.8 3.6 2.8 1.2 0.8 2.4 1.8 3.6 2.6 1.2 0.8 2.6 1.6 3.8 2.2 1.2 0.8 2.6 1.4 4 2 1.4 0.6 2.6 1.2 4 1.8 1.4 0.6 2.8 1.2 4.2 1.6 1.4 0.4 2.8 1 4.2 1.4l4.2 1.2c1.4 0.4 2.8 0.6 4.4 0.8 1.4 0.2 2.8 0.4 4.4 0.6 1.4 0.2 3 0.2 4.4 0.4h4.4c1.4 0 3 0 4.4-0.2 1.4-0.2 3-0.2 4.4-0.4s3-0.4 4.4-0.6c1.4-0.2 2.8-0.6 4.2-1l4.2-1.2c1.4-0.4 2.8-1 4.2-1.4 1.4-0.6 2.8-1 4-1.6 1.4-0.6 2.6-1.2 4-2 1.4-0.6 2.6-1.4 3.8-2.2 1.2-0.8 2.6-1.6 3.8-2.4 1.2-0.8 2.4-1.6 3.6-2.6 1.2-1 2.4-1.8 3.4-2.8 1.2-1 2.2-2 3.2-3s2.2-2 3.2-3.2c1-1 2-2.2 3-3.4 1-1.2 1.8-2.4 2.8-3.6 0.8-1.2 1.8-2.4 2.6-3.6 0.8-1.2 1.6-2.6 2.4-3.8 0.8-1.4 1.4-2.6 2.2-4 0.6-1.4 1.4-2.8 2-4 0.6-1.4 1.2-2.8 1.6-4.2 0.6-1.4 1-2.8 1.4-4.2s0.8-3 1.2-4.4c0.4-1.4 0.6-3 1-4.4 0.2-1.4 0.6-3 0.8-4.4 0.2-1.6 0.4-3 0.4-4.6 0.2-1.6 0.2-3 0.2-4.6V686c0-1.6-0.2-3-0.2-4.6-0.2-1.6-0.4-3-0.6-4.6-0.2-1.6-0.4-3-0.8-4.4-0.2-1.4-0.6-3-1-4.4-0.4-1.4-0.8-3-1.2-4.4-0.4-1.4-1-2.8-1.4-4.2l193.6-200.4c4.4 1.8 9.2 3.2 13.8 4.2 4.8 1 9.6 1.4 14.4 1.4 4.8 0 9.6-0.4 14.4-1.4 4.8-1 9.4-2.4 13.8-4.2l116.2 120.4c-0.6 1.6-1.2 3-1.6 4.6s-1 3-1.4 4.6c-0.4 1.6-0.8 3.2-1 4.8-0.2 1.6-0.6 3.2-0.8 4.8s-0.4 3.2-0.4 4.8c-0.2 1.6-0.2 3.2-0.2 4.8v4.8c0 1.6 0.2 3.2 0.4 4.8l0.6 4.8c0.2 1.6 0.6 3.2 1 4.8s0.8 3.2 1.2 4.6c0.4 1.6 1 3 1.4 4.6 0.6 1.6 1.2 3 1.8 4.6 0.6 1.4 1.4 3 2 4.4 0.8 1.4 1.4 2.8 2.2 4.2 0.8 1.4 1.6 2.8 2.6 4s1.8 2.6 2.8 4c1 1.2 2 2.6 3 3.8 1 1.2 2.2 2.4 3.2 3.6l3.4 3.4c1.2 1 2.4 2.2 3.6 3.2 1.2 1 2.4 2 3.8 2.8 1.2 1 2.6 1.8 4 2.6s2.6 1.6 4 2.4c1.4 0.8 2.8 1.4 4.2 2.2 1.4 0.6 2.8 1.2 4.4 1.8 1.4 0.6 3 1.2 4.4 1.6 1.4 0.4 3 1 4.6 1.4 1.6 0.4 3 0.8 4.6 1s3 0.6 4.6 0.8c1.6 0.2 3.2 0.4 4.6 0.4 1.6 0 3.2 0.2 4.6 0.2 1.6 0 3.2 0 4.6-0.2 1.6 0 3.2-0.2 4.6-0.4 1.6-0.2 3.2-0.4 4.6-0.8 1.6-0.2 3-0.6 4.6-1 1.6-0.4 3-0.8 4.6-1.4 1.4-0.4 3-1 4.4-1.6 1.4-0.6 3-1.2 4.4-1.8 1.4-0.6 2.8-1.4 4.2-2.2 1.4-0.8 2.8-1.6 4-2.4 1.4-0.8 2.6-1.8 4-2.6 1.2-1 2.6-1.8 3.8-2.8 1.2-1 2.4-2 3.6-3.2 1.2-1 2.4-2.2 3.4-3.4 1.2-1.2 2.2-2.4 3.2-3.6 1-1.2 2-2.4 3-3.8 1-1.2 1.8-2.6 2.8-4s1.8-2.8 2.6-4c0.8-1.4 1.6-2.8 2.2-4.2 0.8-1.4 1.4-3 2-4.4 0.6-1.4 1.2-3 1.8-4.6 0.6-1.6 1-3 1.4-4.6 0.4-1.6 0.8-3.2 1.2-4.6 0.4-1.6 0.6-3.2 1-4.8l0.6-4.8c0.2-1.6 0.4-3.2 0.4-4.8 0-1.6 0.2-3.2 0-4.8 0-1.6 0-3.2-0.2-4.8-0.2-1.6-0.2-3.2-0.4-4.8-0.2-1.6-0.4-3.2-0.8-4.8-0.2-1.6-0.6-3.2-1-4.8-0.4-1.6-0.8-3.2-1.4-4.6-0.4-1.6-1-3-1.6-4.6l162.6-168.4c1.4 0.6 2.6 1 4 1.4 1.4 0.4 2.8 0.8 4 1.2 1.4 0.4 2.8 0.8 4.2 1s2.8 0.6 4.2 0.8l4.2 0.6c1.4 0.2 2.8 0.2 4.2 0.4h4.2c1.4 0 2.8 0 4.2-0.2 1.4 0 2.8-0.2 4.2-0.4l4.2-0.6c1.4-0.2 2.8-0.6 4.2-0.8l4.2-1.2c1.4-0.4 2.8-0.8 4-1.4 1.4-0.4 2.6-1 4-1.6 1.4-0.6 2.6-1.2 3.8-1.8 1.2-0.6 2.6-1.4 3.8-2 1.2-0.8 2.4-1.4 3.6-2.2l3.6-2.4c1.2-0.8 2.2-1.8 3.4-2.6 1.2-1 2.2-1.8 3.2-2.8 1-1 2-2 3.2-3 1-1 2-2 3-3.2 1-1 1.8-2.2 2.8-3.4 0.8-1.2 1.8-2.4 2.6-3.4l2.4-3.6c0.8-1.2 1.4-2.4 2.2-3.8 0.6-1.2 1.4-2.6 2-3.8 0.6-1.4 1.2-2.6 1.8-4 0.6-1.4 1-2.8 1.6-4 0.4-1.4 1-2.8 1.4-4.2l1.2-4.2c0.4-1.4 0.6-2.8 1-4.2 0.2-1.4 0.4-2.8 0.6-4.4 0.2-1.4 0.4-3 0.4-4.4 0.2-1.4 0.2-3 0.2-4.4V334c0-1.4-0.2-3-0.2-4.4-0.2-1.4-0.2-3-0.4-4.4-0.2-1.4-0.4-2.8-0.8-4.4-0.2-1.4-0.6-2.8-1-4.2l-1.2-4.2c-0.4-1.4-0.8-2.8-1.4-4.2-0.6-1.4-1-2.8-1.6-4-0.6-1.4-1.2-2.6-1.8-4-0.6-1.4-1.4-2.6-2-3.8-0.8-1.2-1.4-2.6-2.2-3.8l-2.4-3.6c-0.8-1.2-1.8-2.4-2.6-3.4-1-1.2-1.8-2.2-2.8-3.4s-2-2.2-3-3.2-2-2-3.2-3c-1-1-2.2-1.8-3.2-2.8-1.2-0.8-2.2-1.8-3.4-2.6l-3.6-2.4c-1.2-0.8-2.4-1.4-3.6-2.2-1.2-0.6-2.6-1.4-3.8-2-1.2-0.6-2.6-1.2-3.8-1.8-1.4-0.6-2.6-1-4-1.6-1.4-0.4-2.6-1-4-1.4s-2.8-0.8-4.2-1c-1.4-0.4-2.8-0.6-4.2-0.8l-4.2-0.6c-1.4-0.2-2.8-0.2-4.2-0.4-1.4-0.4-2.8-0.4-4.2-0.4z" /></svg>
