<svg width="1024" height="1024" xmlns="http://www.w3.org/2000/svg" version="1.1" class="icon">
  <path d="m249.921185,533.403854c89.025217,-18.689143 76.913369,-122.658362 74.240228,-145.428042c-4.382131,-35.029583 -46.540995,-96.285192 -103.791925,-91.426933c-72.066069,6.304048 -82.59871,108.016864 -82.59871,108.016864c-9.761305,47.065572 23.34544,147.556502 112.150406,128.838111l0,0zm94.52869,180.861574c-2.596381,7.333091 -8.406922,26.051474 -3.376844,42.315144c9.934036,36.504603 45.643547,30.55058 45.643547,30.55058l50.043048,0l-0.000009,-100.086079l-50.043039,0c-22.420575,6.55445 -39.83849,19.940268 -42.266704,27.220355l0,0zm70.739095,-355.241796c49.192202,0 88.929256,-55.323528 88.929256,-123.657254c0,-68.312703 -39.737054,-123.608813 -88.929256,-123.608813c-49.096249,0 -88.950279,55.296111 -88.950279,123.608813c0,68.333726 39.854029,123.657254 88.950279,123.657254l0,0zm211.788676,8.183009c65.762021,8.333805 107.995832,-60.200059 116.404576,-112.145833c8.55771,-51.871746 -33.853396,-112.150406 -80.398963,-122.507565c-46.636036,-10.460444 -104.83924,62.555166 -110.143485,110.121551c-6.329635,58.174875 8.554048,116.2739 74.137872,124.531848l0,0zm161.070263,305.419919c0,0 -101.691793,-76.913369 -161.091286,-160.011061c-80.473902,-122.509405 -194.800289,-72.667416 -233.012051,-10.363563c-38.055482,62.304764 -97.408365,101.693615 -105.843616,112.152228c-8.531203,10.261207 -122.807327,70.562711 -97.460459,180.68336s121.010611,117.154888 121.010611,117.154888s59.125327,-2.829421 135.317632,-19.495201c76.190474,-16.51042 141.851059,4.107044 141.851059,4.107044s178.009308,58.249813 226.723542,-53.901504c48.644779,-112.17142 -27.495433,-170.326192 -27.495433,-170.326192l0,0zm-301.24342,164.548552l-125.113993,0c-49.964448,-1.173445 -63.902252,-40.713092 -66.404503,-46.389296c-2.480307,-5.781293 -16.61734,-32.578506 -9.133461,-78.120617c21.594413,-68.311792 75.566292,-75.640319 75.566292,-75.640319l75.06639,0l0,-75.06547l50.044861,0l0,275.215703l-0.025587,0zm200.179472,0l-125.112171,0c-49.268971,-2.103785 -50.123461,-47.268462 -50.123461,-47.268462l0.07768,-152.909188l50.045781,0l0,125.114002c3.301905,13.787927 25.020609,25.019689 25.020609,25.019689l50.045781,0l0,-150.133691l50.046692,0l0.000009,200.17765l-0.00092,0zm200.548689,-382.740891c0,-24.842395 -21.143863,-99.68305 -99.484741,-99.68305c-78.519083,0 -89.005105,70.636739 -89.005105,120.580164c0,47.641332 4.101552,114.150004 101.638788,112.072726c97.535397,-2.073625 86.851058,-107.970245 86.851058,-132.96984l0,0zm0,0"/>
</svg>
