<svg class="icon" viewBox="0 0 1024 1024" version="1.1" xmlns="http://www.w3.org/2000/svg" width="256" height="256"><path d="M329.088731 768q0 45.714286-32.036571 77.677714t-77.677714 32.036571-77.677714-32.036571-32.036571-77.677714 32.036571-77.677714 77.677714-32.036571 77.677714 32.036571 32.036571 77.677714zM621.66016 838.290286q1.170286 16.018286-9.728 27.428571-10.313143 11.995429-26.843429 11.995429l-77.165714 0q-14.262857 0-24.576-9.435429t-11.410286-23.698286q-12.580571-130.852571-105.398857-223.744t-223.744-105.398857q-14.262857-1.170286-23.698286-11.410286t-9.435429-24.576l0-77.165714q0-16.603429 11.995429-26.843429 9.728-9.728 24.576-9.728l2.852571 0q91.428571 7.460571 174.884571 46.006857t147.968 103.716571q65.170286 64.585143 103.716571 147.968t46.006857 174.884571zM914.231589 839.460571q1.170286 15.433143-10.313143 26.843429-10.313143 11.410286-26.258286 11.410286l-81.700571 0q-14.848 0-25.453714-10.020571t-11.117714-24.283429q-6.875429-122.88-57.709714-233.398857t-132.315429-192-192-132.315429-233.398857-58.294857q-14.262857-0.585143-24.283429-11.117714t-10.020571-24.868571l0-81.700571q0-16.018286 11.410286-26.258286 10.313143-10.313143 25.161143-10.313143l1.682286 0q149.723429 7.460571 286.573714 68.534857t243.126857 168.009143q106.861714 106.276571 168.009143 243.126857t68.534857 286.573714z" /></svg>
