<svg class="icon" viewBox="0 0 1024 1024" version="1.1" xmlns="http://www.w3.org/2000/svg" width="256" height="256"><path d="M640 426.666667h-128V298.666667a42.666667 42.666667 0 0 0-85.333333 0v128H298.666667a42.666667 42.666667 0 0 0 0 85.333333h128v128a42.666667 42.666667 0 0 0 85.333333 0v-128h128a42.666667 42.666667 0 0 0 0-85.333333z m286.293333 439.04L768 708.693333A384 384 0 1 0 708.693333 768l157.013334 157.013333a42.666667 42.666667 0 0 0 60.586666 0 42.666667 42.666667 0 0 0 0-59.306666zM469.333333 768a298.666667 298.666667 0 1 1 298.666667-298.666667 298.666667 298.666667 0 0 1-298.666667 298.666667z" /></svg>
