<svg class="icon" viewBox="0 0 1024 1024" xmlns="http://www.w3.org/2000/svg">
  <path
    d="M413.269333 477.674667s96.896-7.189333 96.896-120.832S430.890667 187.733333 330.453333 187.733333H0v635.093334H330.453333s201.728 6.336 201.728-187.456c0 0 8.810667-157.696-118.912-157.696z m-267.669333-177.066667h184.853333s44.928 0 44.928 66.069333-26.432 75.648-56.384 75.648H145.6v-141.717333z m176.341333 409.322667H145.6v-169.706667h184.853333s66.944-0.874667 66.944 87.210667c0 73.450667-48.96 81.770667-75.456 82.496zM801.237333 349.312c-244.202667 0-243.989333 244.010667-243.989333 244.010667s-16.768 242.773333 243.989333 242.773333c0 0 217.322667 12.373333 217.322667-168.896h-111.765333s3.712 68.266667-101.824 68.266667c0 0-111.765333 7.488-111.765334-110.485334H1022.293333s36.010667-275.669333-221.013333-275.669333z m99.349334 190.912h-208.64s13.674667-97.898667 111.786666-97.898667c98.090667 0 96.853333 97.898667 96.853334 97.898667zM664.618667 225.152h261.994666v78.229333H664.618667z"
    fill="#131418"/>
</svg>
