<svg class="icon" viewBox="0 0 1024 1024" xmlns="http://www.w3.org/2000/svg">
  <path
    d="M486.656 5.632L24.96 221.312a17.962667 17.962667 0 0 0 0.106667 32.597333l465.258666 214.08a51.882667 51.882667 0 0 0 43.349334 0l465.28-214.08a17.962667 17.962667 0 0 0 0.085333-32.576L537.344 5.632a59.861333 59.861333 0 0 0-50.688 0z"
    fill="#333333"/>
  <path
    d="M999.04 498.176l-95.36-44.544a51.882667 51.882667 0 0 0-43.648-0.128l-326.357333 150.165333a51.882667 51.882667 0 0 1-43.349334 0L163.968 453.504a51.882667 51.882667 0 0 0-43.648 0.128l-95.36 44.544a17.962667 17.962667 0 0 0 0.106667 32.576l465.258666 214.08a51.882667 51.882667 0 0 0 43.349334 0l465.28-214.08a17.962667 17.962667 0 0 0 0.085333-32.576z"
    fill="#333333"/>
  <path
    d="M999.04 772.586667l-95.36-44.544a51.882667 51.882667 0 0 0-43.648-0.128L533.674667 878.08a51.882667 51.882667 0 0 1-43.349334 0L163.968 727.914667a51.882667 51.882667 0 0 0-43.648 0.128l-95.36 44.544a17.962667 17.962667 0 0 0 0.106667 32.597333l465.258666 214.058667a51.882667 51.882667 0 0 0 43.349334 0l465.28-214.058667a17.962667 17.962667 0 0 0 0.085333-32.597333z"
    fill="#333333"/>
</svg>
