<svg class="icon" viewBox="0 0 1024 1024" xmlns="http://www.w3.org/2000/svg">
  <path d="M512 512m-512 0a512 512 0 1 0 1024 0 512 512 0 1 0-1024 0Z" fill="#030502"/>
  <path
    d="M840.277333 383.594667l-312-208a29.333333 29.333333 0 0 0-32.554666 0l-312 208A29.717333 29.717333 0 0 0 170.666667 408v208c0 10.069333 5.397333 19.349333 13.056 24.405333l312 208a29.333333 29.333333 0 0 0 32.554666 0l312-208c7.530667-4.906667 13.056-14.229333 13.056-24.405333v-208c0-9.450667-4.842667-18.986667-13.056-24.405333z m-298.944-128.768l229.845334 153.216-102.656 68.672-127.189334-85.077334v-136.810666z m-58.666666 0v136.810666l-127.168 85.077334-102.677334-68.693334 229.845334-153.194666zM229.333333 462.912l73.386667 49.066667-73.386667 49.109333v-98.176z m253.333334 306.261333L252.8 615.957333l102.677333-68.650666 127.146667 85.056v136.810666zM512 581.397333L408.256 512 512 442.602667 615.744 512 512 581.397333z m29.333333 187.776v-136.810666l127.189334-85.056 102.656 68.650666-229.845334 153.216z m253.333334-208.085333L721.28 512l73.386667-49.088V561.066667z"
    fill="#FFFFFF"/>
</svg>
