<svg class="icon" viewBox="0 0 1024 1024" xmlns="http://www.w3.org/2000/svg">
  <path
    d="M1023.955733 398.508621c0-39.210544-16.853281-272.212483-16.85328-272.212482 0-36.906551-13.695957-61.653141-30.89057-78.549088-16.810614-17.10928-41.557203-30.869237-78.506422-30.869237 0 0-232.959272-16.853281-272.212482-16.853281-56.319824 0-93.866373-1.642662-164.43682 68.970451C426.730933 103.256211 46.444122 483.628355 30.380172 499.628305c-15.99995 15.99995-70.122448 79.146419 22.186597 171.434131l300.372395 300.436395c92.373045 92.373045 155.476847 38.122548 171.476797 22.122597L955.027949 562.988107c70.613113-70.613113 68.927785-108.116995 68.927784-164.479486z"
    fill="#8BA651"/>
  <path
    d="M617.493004 524.161562l130.324926 61.866473-47.93585 85.759732-120.532957-78.719754a16.255949 16.255949 0 0 0-17.279946-0.639998 16.213283 16.213283 0 0 0-8.042642 15.253286l9.962636 142.570221h-96.469032-0.447999c0.383999-1.215996 7.935975-142.634221 7.935976-142.634221a16.213283 16.213283 0 0 0-25.322588-14.591954l-117.183634 79.573084-52.30917-83.19974 131.45559-65.258462a16.213283 16.213283 0 0 0 0-29.311909l-130.34626-61.887806 47.893184-85.759732 120.49029 78.783754a16.213283 16.213283 0 1 0 25.322588-14.591955l-9.898636-142.591554h96.533032l-7.615977 142.570221a16.213283 16.213283 0 0 0 25.322588 14.613288l117.183634-79.615752 52.287836 83.221074-131.327589 65.258462a16.213283 16.213283 0 0 0 0 29.311909zM840.404307 250.754416a61.653141 61.653141 0 1 1 0-123.306281 61.567808 61.567808 0 0 1 61.503808 61.610474 61.610474 61.610474 0 0 1-61.503808 61.695807z"
    fill="#FFFFFF"/>
</svg>
