<svg class="icon" viewBox="0 0 1024 1024" xmlns="http://www.w3.org/2000/svg">
  <path
    d="M430.336 400.469333h47.296s-36.053333-179.114667-210.645333-179.114666S0 362.154667 0 507.52s82.24 295.146667 255.722667 295.146667 230.933333-159.978667 230.933333-219.669334h-50.688s-20.266667 176.853333-172.373333 176.853334S48.448 629.162667 48.448 508.629333 128.426667 266.410667 265.856 266.410667s164.48 134.058667 164.48 134.058666z"
    fill=""/>
  <path
    d="M916.970667 492.288c69.845333-21.397333 83.370667-69.461333 83.370666-117.162667 0-49.92-24.789333-137.429333-125.034666-137.429333H568.896v548.608h309.781333c69.845333 0 145.322667-70.976 145.322667-149.824 0-67.968-31.914667-127.296-107.029333-144.213333z m-252.330667-176.853333h165.589333a73.984 73.984 0 1 1 0 147.946666h-165.589333v-147.968z m177.237333 394.261333h-177.237333v-171.221333h177.237333a85.610667 85.610667 0 1 1 0 171.221333z"
    fill="#1F92A8"/>
</svg>
