<svg class="icon" viewBox="0 0 1024 1024" xmlns="http://www.w3.org/2000/svg">
  <path
    d="M981.333333 1024a42.666667 42.666667 0 0 0 42.666667-42.666667V42.666667a42.666667 42.666667 0 0 0-42.666667-42.666667H42.666667a42.666667 42.666667 0 0 0-42.666667 42.666667v938.666666a42.666667 42.666667 0 0 0 42.666667 42.666667h938.666666z"
    fill="#39579A"/>
  <path
    d="M544.426667 1024V618.666667H405.333333v-149.333334h139.093334v-110.4c0-132.266667 80.768-204.266667 198.741333-204.266666 56.533333 0 105.088 4.202667 119.253333 6.08v138.24l-81.834666 0.021333c-64.170667 0-76.586667 30.506667-76.586667 75.242667V469.333333h149.333333l-21.333333 149.333334h-128v405.333333h-159.573333z"
    fill="#FFFFFF"/>
</svg>
