<svg class="icon" viewBox="0 0 1024 1024" xmlns="http://www.w3.org/2000/svg">
  <path
    d="M965.96416 466.773333c-117.162667-117.184-234.346667-234.304-351.402667-351.530666-17.130667-16.810667-33.216-36.010667-55.808-45.653334-22.442667-10.666667-48.426667-12.16-72.533333-7.04-21.077333 4.842667-40.128 16.405333-55.36 31.616C299.14816 225.92 167.393493 357.696 35.617493 489.386667c-15.146667 15.146667-27.008 34.048-31.850666 55.082666-10.816 37.866667 2.773333 80.298667 30.506666 107.541334 92.864 92.928 185.813333 185.706667 278.634667 278.677333a110.912 110.912 0 0 0 79.658667 33.109333c75.968 0.426667 151.936-0.042667 227.84 0.256 34.176 2.176 68.757333-10.026667 92.949333-34.517333 84.138667-83.925333 168.064-168.128 252.16-252.096 13.717333-13.888 28.565333-26.901333 39.722667-43.029333 20.501333-29.525333 23.893333-69.290667 11.925333-102.741334-9.365333-26.837333-31.786667-45.354667-51.2-64.896z"
    fill="#1FB446"/>
  <path
    d="M308.214827 616.362667c-14.293333 17.024-39.466667 12.565333-58.816 9.557333-17.066667-13.674667-32.661333-29.525333-46.421334-46.442667-7.957333-9.365333 2.218667-19.157333 8.533334-25.749333 86.656-86.272 173.013333-172.928 259.498666-259.349333 11.626667-11.306667 22.144-23.893333 35.2-33.6 11.221333-5.610667 19.904 6.549333 27.392 13.013333 15.893333 16.938667 33.92 32 48.512 50.133333 7.530667 9.002667-0.725333 19.413333-7.317333 25.856-88.96 88.768-177.92 177.536-266.581333 266.581334zM580.897493 820.842667c-13.824 15.530667-28.266667 30.805333-44.501333 43.776-14.890667 3.605333-30.72 2.773333-45.802667 0.597333-14.506667-7.338667-24.298667-21.418667-36.16-32.256-8.448-8.234667-21.674667-20.586667-10.773333-32.469333a845.418667 845.418667 0 0 1 58.325333-58.453334c7.573333-6.357333 18.858667-3.2 24.96 3.733334a1921.706667 1921.706667 0 0 1 51.242667 51.328c6.613333 5.866667 10.176 16.96 2.709333 23.744zM575.713493 587.946667c-49.344 49.301333-98.837333 98.517333-147.904 148.117333-13.781333 16.874667-37.994667 11.52-56.917333 9.962667-18.176-11.712-32.32-29.013333-46.976-44.778667-9.749333-9.237333-0.64-21.333333 6.890667-28.288 49.408-49.216 98.752-98.432 147.904-147.925333 8.96-8.725333 17.066667-18.773333 27.925333-25.386667 10.858667-4.672 18.816 6.4 26.026667 12.586667 16.426667 17.6 35.157333 33.109333 50.133333 51.968 6.592 8.384-1.066667 17.792-7.082667 23.765333z"
    fill="#FFFFFF"/>
</svg>
