<svg class="icon" viewBox="0 0 1024 1024" xmlns="http://www.w3.org/2000/svg">
  <path
    d="M831.893333 954.090667c-6.613333-26.538667-23.125333-73.386667-36.650666-104.128-26.453333-60.032-60.586667-173.397333-96.298667-320-12.245333-50.282667-25.898667-98.090667-30.336-106.24-11.413333-21.077333-18.197333 45.546667-24.298667 238.293333-2.816 89.408-11.2 183.125333-18.602666 208.256l-13.482667 45.717333-200.661333 18.56c-40.170667-50.368-175.253333-264.96-175.253334-264.96-0.064 0.085333 23.146667 194.944 18.858667 211.328-6.933333 26.538667-102.72 64.170667-159.232 62.592-46.933333-1.344-56.917333-20.8-71.850667-140.16C-1.408 599.808-3.669333 552.576 3.626667 377.472l7.253333-174.08 44.693333-11.946667c71.978667-19.242667 152.021333-15.552 173.994667 8.042667 10.24 11.008 59.370667 98.986667 109.141333 195.562667l90.517334 175.552 12.8-96.512c18.901333-142.229333 75.178667-332.650667 123.648-418.368l19.050666-33.706667 89.706667 2.218667c73.813333 1.792 93.226667 5.738667 109.696 22.186666 25.472 25.472 73.6 207.722667 144.426667 546.752 8.405333 40.362667 21.994667 92.373333 30.208 115.562667 8.192 23.189333 14.869333 50.602667 14.869333 60.906667s11.434667 53.738667 25.386667 96.533333c25.685333 78.656 30.933333 104.405333 18.730666 92.224 0 0-122.197333 41.066667-167.36 43.562667-3.52 0.213333-11.84-21.333333-18.474666-47.872z"
    fill="#030303"/>
</svg>
