<svg class="icon" viewBox="0 0 1024 1024" xmlns="http://www.w3.org/2000/svg">
  <path
    d="M981.333333 1024H42.666667a42.666667 42.666667 0 0 1-42.666667-42.666667V42.666667a42.666667 42.666667 0 0 1 42.666667-42.666667h938.666666a42.666667 42.666667 0 0 1 42.666667 42.666667v938.666666a42.666667 42.666667 0 0 1-42.666667 42.666667z"
    fill="#020302"/>
  <path d="M625.344 411.754667a108.608 108.224 0 1 0 217.216 0 108.608 108.224 0 1 0-217.216 0Z" fill="#FFFFFF"
  />
  <path d="M391.488 442.624a97.770667 97.408 0 1 0 195.541333 0 97.770667 97.408 0 1 0-195.541333 0Z" fill="#FFFFFF"
  />
  <path d="M179.370667 470.421333a88 87.637333 0 1 0 176 0 88 87.637333 0 1 0-176 0Z" fill="#FFFFFF"/>
  <path
    d="M267.370667 578.069333C211.562667 578.069333 170.666667 627.050667 170.666667 677.632v34.048c0 4.821333 3.946667 8.768 8.789333 8.768h175.786667a8.810667 8.810667 0 0 0 8.810666-8.746667v-34.069333c0-50.581333-40.896-99.562667-96.682666-99.562667zM489.258667 562.24c-61.994667 0-107.456 54.4-107.456 110.634667v37.845333c0 5.333333 4.373333 9.728 9.770666 9.728H586.922667a9.770667 9.770667 0 0 0 9.792-9.728V672.853333c0-56.234667-45.461333-110.634667-107.456-110.634666zM733.952 544.64c-68.885333 0-119.402667 60.48-119.402667 122.944v42.026667a10.88 10.88 0 0 0 10.88 10.837333H842.453333a10.88 10.88 0 0 0 10.88-10.816v-42.026667c0-62.506667-50.496-122.944-119.381333-122.944z"
    fill="#FFFFFF"/>
</svg>
