<svg class="icon" viewBox="0 0 1024 1024" xmlns="http://www.w3.org/2000/svg">
  <path
    d="M199.111111 85.333333C151.978667 85.333333 113.777778 123.534222 113.777778 170.666667s38.200889 85.333333 85.333333 85.333333 85.333333-38.200889 85.333333-85.333333S246.243556 85.333333 199.111111 85.333333zM199.111111 341.333333c-47.132444 0-85.333333 38.200889-85.333333 85.333333s38.200889 85.333333 85.333333 85.333333 85.333333-38.200889 85.333333-85.333333S246.243556 341.333333 199.111111 341.333333zM113.777778 938.666667l142.222222-85.333333 0-256L113.777778 597.333333 113.777778 938.666667zM910.222222 85.333333c0 0-513.792 0-540.444444 0s-28.444444 28.444444-28.444444 28.444444l0 824.888889 113.777778-85.333333L455.111111 170.666667l455.111111 0L910.222222 85.333333zM739.555556 853.333333l0-142.222222 142.222222 0 0-56.888889-142.222222 0 0-85.333333 170.666667 0 0-85.333333-170.666667 0 0-113.777778 142.222222 0 0-56.888889-142.222222 0L739.555556 256l-113.777778 0 0 56.888889-142.222222 0 0 56.888889 142.222222 0 0 113.777778-142.222222 0 0 85.333333 142.222222 0 0 85.333333-142.222222 0 0 56.888889 142.222222 0 0 142.222222-142.222222 0 0 56.888889 455.111111 0 0-56.888889L739.555556 853.333333z"
    fill="#08E2FF"/>
</svg>
