<svg class="icon" viewBox="0 0 1024 1024" xmlns="http://www.w3.org/2000/svg">
  <path
    d="M960.846507 509.048258c-26.367599 6.101241-51.881878 8.767867-74.857528 8.767867-129.192702 0-228.668522-90.238628-228.668522-247.121575 0-76.905497 29.738214-116.904889 71.785575-116.904889 39.999392 0 66.665653 35.903454 66.665652 108.713013 0 41.386037-11.093165 86.761347-19.28504 113.598273 0 0 39.807395 69.460277 148.691072 48.127268 23.103649-51.305886 35.668791-117.758209 35.668791-176.082656C960.846507 91.262612 880.847724 0 734.225954 0c-150.717708 0-238.9297 115.880904-238.9297 268.667914 0 151.357698 70.782924 281.275722 187.453149 340.474822-49.06592 98.131841-111.486304 184.594526-176.594647 249.724202-118.12087-142.803162-224.913913-333.306931-268.731913-705.055944h-174.290683c80.532109 619.147917 320.485793 816.286252 383.930161 854.152343 35.882121 21.546339 66.772318 20.501022 99.582485 2.047969 51.519216-29.290221 206.204864-183.954536 291.920894-365.093114a576.161904 576.161904 0 0 0 122.280807-13.951788v-121.918146z"
    fill="#00B588"/>
</svg>
