<svg class="icon" viewBox="0 0 1024 1024" xmlns="http://www.w3.org/2000/svg">
  <path
    d="M512.564498 5.644983c-19.192944 0-38.385888 1.128997-57.014333 3.386991-46.288864 5.080485-89.755237 16.370452-131.528114 33.305402 0 0 341.521499 338.134509 351.117971 350.553473V32.176406c-10.16097-3.38699-20.886439-6.77398-31.047409-9.596472-42.337376-10.725469-85.803749-16.93495-131.528115-16.934951z"
    fill="#F95352"/>
  <path
    d="M869.891951 152.414553c-13.54796-13.54796-28.224917-25.966924-42.901874-37.821389-36.127894-28.789416-75.642778-51.933848-116.286659-69.433296 0 0 2.257993 480.388093 0 495.629548L965.292172 285.636163c-4.515987-9.596472-10.16097-19.192944-15.241455-28.789415-22.015436-37.256891-48.546858-72.255788-80.158766-104.432195z"
    fill="#6367EF"/>
  <path
    d="M981.662624 326.280044S643.528115 667.801544 631.109151 677.398015h360.714443c3.38699-10.16097 6.77398-20.886439 9.596472-31.047409 11.289967-41.772878 17.499449-85.803749 17.499449-130.963616 0-19.192944-1.128997-38.385888-3.38699-57.014333-5.644983-46.853363-16.93495-90.884234-33.869901-132.092613z"
    fill="#5283EF"/>
  <path
    d="M480.388093 714.654906l255.153252 255.153253c9.596472-4.515987 19.192944-10.16097 28.789416-15.241456 37.821389-21.450937 72.820287-48.546858 104.996692-80.158765 13.54796-13.54796 25.966924-28.224917 37.821389-42.901874 28.789416-36.127894 51.933848-75.07828 69.433297-116.286659-0.564498-0.564498-480.952591 2.257993-496.194046-0.564499z"
    fill="#00B0FD"/>
  <path
    d="M349.424476 634.496141v360.714443c10.16097 3.38699 20.886439 6.77398 31.047409 9.596472 41.772878 11.289967 85.803749 17.499449 130.963617 17.499449 19.192944 0 38.385888-1.128997 57.014333-3.38699 46.288864-5.080485 89.755237-16.370452 131.528114-33.305403 0-0.564498-341.521499-338.699008-350.553473-351.117971z"
    fill="#66D01F"/>
  <path
    d="M313.296582 484.339581L58.14333 739.492834c4.515987 9.596472 10.16097 19.192944 15.241455 28.789415 21.450937 37.821389 48.546858 72.820287 80.158765 104.996693 13.54796 13.54796 28.224917 25.966924 42.901874 37.821389 36.127894 28.789416 75.07828 51.933848 116.28666 69.433296 0.564498-0.564498-1.693495-480.952591 0.564498-496.194046z"
    fill="#9AD121"/>
  <path
    d="M23.144432 382.16538C11.854465 423.938258 5.644983 467.969129 5.644983 513.128997c0 19.192944 1.128997 38.385888 3.386991 57.014333 5.080485 46.288864 16.370452 89.755237 33.305402 131.528114 0 0 338.134509-341.521499 350.553473-350.553473H32.176406c-3.38699 10.16097-6.209482 20.32194-9.031974 31.047409z"
    fill="#FFC716"/>
  <path
    d="M257.411246 75.07828c-37.821389 21.450937-72.820287 48.546858-104.996693 80.158765-13.54796 13.54796-25.966924 28.224917-37.821389 42.901875-28.789416 36.127894-51.933848 75.642778-69.433296 116.851157 0 0 480.388093-2.257993 496.194046 0L286.200662 59.836825l-28.789416 15.241455z"
    fill="#FF7612"/>
</svg>
