<svg class="icon" viewBox="0 0 1024 1024" xmlns="http://www.w3.org/2000/svg">
  <path
    d="m539.10112,769.84386l-76.1176,48.43027l-96.09396,-151.06277c-19.84108,63.2209 -52.84942,120.17382 -96.45471,172.48212c-18.12753,21.78009 -36.97655,41.39571 -58.66646,62.00338c-6.98947,6.62872 -34.94736,32.33194 -39.59197,36.97655l-63.76202,-63.76201c6.26798,-6.26798 35.48848,-33.14362 41.26043,-38.59992c19.39015,-18.39809 35.84922,-35.62376 51.49662,-54.3826c57.0882,-68.45173 91.53954,-144.7497 96.36452,-235.88338l-179.78724,0l0,-90.18674l180.37346,0l0,-180.37345l-39.14104,0c-31.06932,57.0882 -70.25546,100.19745 -118.05442,128.83173l-46.35599,-77.29002c62.90524,-37.78824 109.35141,-117.42312 136.99365,-241.70044l88.02224,19.57053c-6.31307,28.5441 -13.66329,55.32956 -22.05066,80.40146l203.50636,0l0,90.18674l-112.73341,0l0,180.37345l112.73341,0l0,90.18674l-104.39115,0l142.44994,223.79836zm173.06834,-3.15653l50.32419,-40.26838l76.74891,0l0,-450.93363l-180.37346,0l0,450.93363l33.18872,0l20.11164,40.26838zm-143.48708,-581.38875l360.74691,0l0,631.30711l-135.28009,0l-112.73341,90.18672l-45.09336,-90.18672l-67.64005,0l0,-631.30711z"
    fill="#0E87EA"/>
</svg>
